<svg width="20" height="20" viewBox="0 0 20 20" fill="none" xmlns="http://www.w3.org/2000/svg">
<path d="M5.03178 12.1377L3.6651 18.0557C3.62278 18.2349 3.63549 18.4227 3.70156 18.5945C3.76763 18.7664 3.88399 18.9143 4.03545 19.0191C4.18691 19.1238 4.36643 19.1804 4.55056 19.1814C4.73468 19.1825 4.91486 19.1281 5.06755 19.0252L10.0619 15.6956L15.0562 19.0252C15.2125 19.1289 15.3967 19.1823 15.5842 19.1782C15.7717 19.1741 15.9535 19.1127 16.105 19.0022C16.2565 18.8917 16.3706 18.7375 16.4319 18.5602C16.4931 18.383 16.4986 18.1912 16.4477 18.0107L14.7701 12.1404L18.9306 8.39628C19.0639 8.27629 19.159 8.11988 19.2043 7.94638C19.2497 7.77289 19.2431 7.58992 19.1855 7.4201C19.1279 7.25029 19.0219 7.10107 18.8804 6.99091C18.7389 6.88075 18.5682 6.81448 18.3895 6.80029L13.1603 6.38386L10.8975 1.37485C10.8253 1.21356 10.708 1.0766 10.5598 0.980493C10.4115 0.88439 10.2386 0.833252 10.0619 0.833252C9.8852 0.833252 9.71228 0.88439 9.56401 0.980493C9.41574 1.0766 9.29844 1.21356 9.22629 1.37485L6.96347 6.38386L1.73432 6.79937C1.55863 6.81329 1.39067 6.87753 1.25053 6.98441C1.11039 7.09128 1.00401 7.23627 0.94412 7.40202C0.884224 7.56777 0.87335 7.74727 0.912798 7.91904C0.952245 8.09081 1.04034 8.24758 1.16656 8.37059L5.03178 12.1377ZM7.64865 8.16972C7.81237 8.15682 7.96961 8.10012 8.10387 8.00555C8.23814 7.91098 8.3445 7.78203 8.41179 7.63222L10.0619 3.98071L11.712 7.63222C11.7793 7.78203 11.8856 7.91098 12.0199 8.00555C12.1542 8.10012 12.3114 8.15682 12.4751 8.16972L16.1184 8.45865L13.1181 11.159C12.8576 11.3938 12.754 11.7552 12.8494 12.0927L13.9987 16.1148L10.5719 13.83C10.4215 13.729 10.2444 13.6751 10.0633 13.6751C9.88212 13.6751 9.70507 13.729 9.55466 13.83L5.97378 16.2175L6.93688 12.0478C6.97219 11.8944 6.96745 11.7346 6.92311 11.5836C6.87878 11.4326 6.79634 11.2955 6.68372 11.1856L3.89716 8.46874L7.64865 8.16972Z" fill="#F3CD03"/>
</svg>
