<svg width="24" height="45" viewBox="0 0 24 45" fill="none" xmlns="http://www.w3.org/2000/svg">
<path fill-rule="evenodd" clip-rule="evenodd" d="M23.4992 44.3017C23.3409 44.4595 23.1528 44.5847 22.9457 44.6701C22.7386 44.7556 22.5166 44.7996 22.2924 44.7996C22.0682 44.7996 21.8462 44.7556 21.6391 44.6701C21.432 44.5847 21.2439 44.4595 21.0856 44.3017L0.631046 23.9645C0.472307 23.8071 0.346367 23.6201 0.260435 23.4142C0.174505 23.2083 0.130272 22.9875 0.130272 22.7646C0.130272 22.5417 0.174505 22.321 0.260435 22.1151C0.346367 21.9092 0.472307 21.7221 0.631046 21.5647L21.0856 1.22756C21.4057 0.909324 21.8398 0.730545 22.2924 0.730545C22.7451 0.730545 23.1792 0.909325 23.4992 1.22756C23.8193 1.54579 23.9991 1.9774 23.9991 2.42745C23.9991 2.87749 23.8193 3.30911 23.4992 3.62734L4.24809 22.7646L23.4992 41.9019C23.658 42.0593 23.7839 42.2463 23.8698 42.4522C23.9558 42.6581 24 42.8788 24 43.1018C24 43.3247 23.9558 43.5454 23.8698 43.7513C23.7839 43.9572 23.658 44.1442 23.4992 44.3017Z" fill="white"/>
</svg>
