<svg width="27" height="29" viewBox="0 0 27 29" fill="none" xmlns="http://www.w3.org/2000/svg">
<path d="M13.5 14.5C15.2902 14.5 17.0071 13.7625 18.273 12.4497C19.5388 11.137 20.25 9.35651 20.25 7.5C20.25 5.64348 19.5388 3.86301 18.273 2.55025C17.0071 1.2375 15.2902 0.5 13.5 0.5C11.7098 0.5 9.9929 1.2375 8.72703 2.55025C7.46116 3.86301 6.75 5.64348 6.75 7.5C6.75 9.35651 7.46116 11.137 8.72703 12.4497C9.9929 13.7625 11.7098 14.5 13.5 14.5ZM18 7.5C18 8.73768 17.5259 9.92466 16.682 10.7998C15.8381 11.675 14.6935 12.1667 13.5 12.1667C12.3065 12.1667 11.1619 11.675 10.318 10.7998C9.47411 9.92466 9 8.73768 9 7.5C9 6.26232 9.47411 5.07534 10.318 4.20017C11.1619 3.325 12.3065 2.83333 13.5 2.83333C14.6935 2.83333 15.8381 3.325 16.682 4.20017C17.5259 5.07534 18 6.26232 18 7.5ZM27 26.1667C27 28.5 24.75 28.5 24.75 28.5H2.25C2.25 28.5 0 28.5 0 26.1667C0 23.8333 2.25 16.8333 13.5 16.8333C24.75 16.8333 27 23.8333 27 26.1667ZM24.75 26.1573C24.7477 25.5833 24.4035 23.8567 22.878 22.2747C21.411 20.7533 18.6502 19.1667 13.5 19.1667C8.3475 19.1667 5.589 20.7533 4.122 22.2747C2.5965 23.8567 2.2545 25.5833 2.25 26.1573H24.75Z" fill="#23A6F0"/>
</svg>
