<svg width="30" height="28" viewBox="0 0 30 28" fill="none" xmlns="http://www.w3.org/2000/svg">
<path d="M14.9998 4.98084L13.7002 3.64503C10.6498 0.5094 5.05643 1.59146 3.03731 5.53365C2.08937 7.38784 1.8755 10.0649 3.60643 13.4815C5.27393 16.7712 8.74306 20.7115 14.9998 25.0035C21.2566 20.7115 24.7239 16.7712 26.3932 13.4815C28.1241 10.0631 27.9121 7.38784 26.9623 5.53365C24.9432 1.59146 19.3498 0.507588 16.2994 3.64321L14.9998 4.98084ZM14.9998 27.1876C-12.7913 8.82334 6.443 -5.50991 14.6808 2.07178C14.7896 2.17146 14.8965 2.27478 14.9998 2.38171C15.1021 2.27487 15.2085 2.17209 15.3188 2.07359C23.5548 -5.51354 42.7909 8.82152 14.9998 27.1876Z" fill="#23A6F0"/>
</svg>
