<svg width="24" height="45" viewBox="0 0 24 45" fill="none" xmlns="http://www.w3.org/2000/svg">
<path fill-rule="evenodd" clip-rule="evenodd" d="M0.565898 0.69834C0.724235 0.540513 0.912334 0.415294 1.11942 0.329856C1.32651 0.244418 1.54851 0.200439 1.77272 0.200439C1.99692 0.200439 2.21893 0.244418 2.42601 0.329856C2.6331 0.415294 2.8212 0.540513 2.97953 0.69834L23.4341 21.0355C23.5928 21.1929 23.7188 21.3799 23.8047 21.5858C23.8906 21.7917 23.9349 22.0125 23.9349 22.2354C23.9349 22.4583 23.8906 22.679 23.8047 22.8849C23.7188 23.0908 23.5928 23.2779 23.4341 23.4353L2.97953 43.7724C2.65947 44.0907 2.22536 44.2695 1.77272 44.2695C1.32007 44.2695 0.885966 44.0907 0.565898 43.7724C0.24583 43.4542 0.066017 43.0226 0.066017 42.5726C0.066017 42.1225 0.24583 41.6909 0.565898 41.3727L19.817 22.2354L0.565898 3.09813C0.40716 2.9407 0.281218 2.75368 0.195286 2.54778C0.109355 2.34188 0.0651245 2.12115 0.0651245 1.89823C0.0651245 1.67531 0.109355 1.45458 0.195286 1.24869C0.281218 1.04279 0.40716 0.855769 0.565898 0.69834Z" fill="white"/>
</svg>
