<svg width="34" height="34" viewBox="0 0 34 34" fill="none" xmlns="http://www.w3.org/2000/svg">
<path d="M24.9527 21.9808C27.0103 19.1731 27.9318 15.692 27.533 12.2339C27.1342 8.77589 25.4445 5.59595 22.8018 3.3303C20.1591 1.06465 16.7585 -0.119627 13.2802 0.0144014C9.80188 0.148429 6.50243 1.59088 4.04195 4.05317C1.58147 6.51545 0.14141 9.81599 0.00987351 13.2945C-0.121663 16.7729 1.06503 20.1728 3.33252 22.8139C5.60002 25.455 8.78111 27.1425 12.2394 27.5388C15.6976 27.9352 19.178 27.0111 21.9842 24.9515H21.9821C22.0458 25.0365 22.1138 25.1172 22.1903 25.1959L30.3713 33.377C30.7697 33.7757 31.3102 33.9998 31.8739 34C32.4376 34.0002 32.9782 33.7765 33.377 33.378C33.7757 32.9796 33.9998 32.4391 34 31.8754C34.0002 31.3117 33.7765 30.771 33.378 30.3723L25.1971 22.1912C25.1211 22.1143 25.0394 22.0432 24.9527 21.9787V21.9808ZM25.5009 13.8125C25.5009 15.3472 25.1987 16.867 24.6113 18.285C24.024 19.7029 23.1631 20.9913 22.0779 22.0766C20.9926 23.1619 19.7043 24.0228 18.2863 24.6101C16.8684 25.1974 15.3487 25.4997 13.8139 25.4997C12.2791 25.4997 10.7594 25.1974 9.34144 24.6101C7.9235 24.0228 6.63513 23.1619 5.54989 22.0766C4.46464 20.9913 3.60378 19.7029 3.01645 18.285C2.42912 16.867 2.12683 15.3472 2.12683 13.8125C2.12683 10.7128 3.35814 7.74009 5.54989 5.5483C7.74164 3.35651 10.7143 2.12517 13.8139 2.12517C16.9135 2.12517 19.8861 3.35651 22.0779 5.5483C24.2696 7.74009 25.5009 10.7128 25.5009 13.8125Z" fill="#23A6F0"/>
</svg>
