<svg width="36" height="35" viewBox="0 0 36 35" fill="none" xmlns="http://www.w3.org/2000/svg">
<path d="M0.5 1.46875C0.5 1.16209 0.621819 0.867997 0.838658 0.651158C1.0555 0.434319 1.34959 0.3125 1.65625 0.3125H5.125C5.38292 0.312571 5.6334 0.398873 5.83663 0.557682C6.03985 0.716491 6.18415 0.938688 6.24656 1.18894L7.18313 4.9375H34.0312C34.201 4.93766 34.3687 4.9752 34.5223 5.04746C34.6759 5.11972 34.8118 5.22493 34.9202 5.35561C35.0285 5.48629 35.1068 5.63923 35.1494 5.80357C35.192 5.96791 35.1979 6.13962 35.1667 6.3065L31.6979 24.8065C31.6483 25.0715 31.5077 25.3108 31.3004 25.483C31.0931 25.6553 30.8321 25.7498 30.5625 25.75H9.75C9.48044 25.7498 9.21943 25.6553 9.01211 25.483C8.80478 25.3108 8.66416 25.0715 8.61456 24.8065L5.14813 6.34119L4.22312 2.625H1.65625C1.34959 2.625 1.0555 2.50318 0.838658 2.28634C0.621819 2.0695 0.5 1.77541 0.5 1.46875ZM7.67338 7.25L10.7097 23.4375H29.6028L32.6391 7.25H7.67338ZM12.0625 25.75C10.8359 25.75 9.65949 26.2373 8.79213 27.1046C7.92478 27.972 7.4375 29.1484 7.4375 30.375C7.4375 31.6016 7.92478 32.778 8.79213 33.6454C9.65949 34.5127 10.8359 35 12.0625 35C13.2891 35 14.4655 34.5127 15.3329 33.6454C16.2002 32.778 16.6875 31.6016 16.6875 30.375C16.6875 29.1484 16.2002 27.972 15.3329 27.1046C14.4655 26.2373 13.2891 25.75 12.0625 25.75ZM28.25 25.75C27.0234 25.75 25.847 26.2373 24.9796 27.1046C24.1123 27.972 23.625 29.1484 23.625 30.375C23.625 31.6016 24.1123 32.778 24.9796 33.6454C25.847 34.5127 27.0234 35 28.25 35C29.4766 35 30.653 34.5127 31.5204 33.6454C32.3877 32.778 32.875 31.6016 32.875 30.375C32.875 29.1484 32.3877 27.972 31.5204 27.1046C30.653 26.2373 29.4766 25.75 28.25 25.75ZM12.0625 28.0625C12.6758 28.0625 13.264 28.3061 13.6977 28.7398C14.1314 29.1735 14.375 29.7617 14.375 30.375C14.375 30.9883 14.1314 31.5765 13.6977 32.0102C13.264 32.4439 12.6758 32.6875 12.0625 32.6875C11.4492 32.6875 10.861 32.4439 10.4273 32.0102C9.99364 31.5765 9.75 30.9883 9.75 30.375C9.75 29.7617 9.99364 29.1735 10.4273 28.7398C10.861 28.3061 11.4492 28.0625 12.0625 28.0625ZM28.25 28.0625C28.8633 28.0625 29.4515 28.3061 29.8852 28.7398C30.3189 29.1735 30.5625 29.7617 30.5625 30.375C30.5625 30.9883 30.3189 31.5765 29.8852 32.0102C29.4515 32.4439 28.8633 32.6875 28.25 32.6875C27.6367 32.6875 27.0485 32.4439 26.6148 32.0102C26.1811 31.5765 25.9375 30.9883 25.9375 30.375C25.9375 29.7617 26.1811 29.1735 26.6148 28.7398C27.0485 28.3061 27.6367 28.0625 28.25 28.0625Z" fill="#23A6F0"/>
</svg>
